<?xml version="1.0" encoding="UTF-8"?>
<svg xmlns="http://www.w3.org/2000/svg" width="177.48" height="70.76" viewBox="0 0 177.48 70.76">
    <path d="m48.98,42.58c0,5.28-2.23,9.61-6.69,13-4.46,3.39-9.31,5.08-14.54,5.08-4.6,0-9.14-1.45-13.62-4.36-4.49-2.91-7.08-4.36-7.77-4.36-1.76,0-2.86.67-3.29,2-.43,1.33-.83,3.57-1.2,6.72H.5v-28.64h1.36c.32,1.12.87,2.96,1.64,5.52.77,2.56,2.21,5.61,4.32,9.16,2.11,3.55,4.88,6.49,8.32,8.84,3.44,2.35,7.43,3.52,11.96,3.52,2.61,0,4.75-.69,6.4-2.08,1.65-1.39,2.48-3.04,2.48-4.96,0-2.29-.61-4.11-1.84-5.44-1.23-1.33-3.44-2.63-6.64-3.88-3.2-1.25-6.59-2.6-10.16-4.04-3.57-1.44-7.36-3.39-11.36-5.84C2.98,30.42.98,25.89.98,19.22c0-5.23,2.11-9.65,6.32-13.28C11.51,2.31,16.37.5,21.86.5c3.04,0,6,.72,8.88,2.16l8.32,4.64c1.55,0,2.56-.65,3.04-1.96.48-1.31.72-2.92.72-4.84h1.52v21.2h-1.44c-.27-.91-.81-2.45-1.64-4.64-.83-2.19-2.42-4.64-4.79-7.36-2.37-2.72-4.71-4.68-7.02-5.88-2.31-1.2-5.09-1.8-8.34-1.8-2.18,0-4.2.64-6.06,1.92-1.86,1.28-2.79,2.88-2.79,4.8,0,2.03.71,3.72,2.12,5.08,1.41,1.36,3.04,2.44,4.88,3.24,1.84.8,4.39,1.81,7.64,3.04,3.25,1.23,6.63,2.65,10.12,4.28,3.49,1.63,6.36,4,8.6,7.12,2.24,3.12,3.36,6.81,3.36,11.08Z" fill="#7b6a58"/>
    <path d="m74.34,68.66c2.08-.05,3.96-.09,5.64-.12,1.68-.03,3.64-.07,5.88-.12,3.84,0,8.2-2.91,13.08-8.72,4.88-5.81,8.71-11.55,11.48-17.2h1.28v27.76h-61.36v-.88L89.46,13.86v-.4l-9.2.24c-4.05,0-8.49,2.75-13.32,8.24-4.83,5.49-8.68,11.07-11.56,16.72h-1.28V11.94h59.44v.88l-39.2,55.44v.4Z" fill="#7b6a58"/>
    <path d="m153.78,59.7h-39.04v-1.28h2.48c1.12-.16,2.21-.31,3.28-.44,1.07-.13,1.91-.53,2.52-1.2.61-.67,1-1.85,1.16-3.56l.16-3.68V11.62l-.16-3.68c-.16-1.71-.56-2.91-1.2-3.6-.64-.69-1.53-1.12-2.68-1.28-1.15-.16-2.19-.25-3.12-.28-.93-.03-1.77-.07-2.52-.12v-1.28l37.36-.08c8.69,0,14.47.96,17.32,2.88,2.85,1.92,4.84,3.99,5.96,6.2,1.12,2.21,1.68,4.6,1.68,7.16,0,2.4-.37,4.69-1.12,6.88-.75,2.19-1.89,3.99-3.44,5.4-1.55,1.41-3.47,2.47-5.76,3.16-2.29.69-5.25,1.04-8.88,1.04s-6.27.01-8.4.04c-2.13.03-3.92.07-5.36.12v15.36l.16,3.68c.16,1.71.55,2.89,1.16,3.56.61.67,1.51,1.08,2.68,1.24,1.17.16,2.32.25,3.44.28,1.12.03,1.89.07,2.32.12v1.28Zm3.2-42.32c0-3.04-.4-6-1.2-8.88s-2.01-4.55-3.64-5c-1.63-.45-3.2-.69-4.72-.72-1.52-.03-2.65-.04-3.4-.04v29.92c1.07-.05,2.16-.11,3.28-.16,1.12-.05,2.6-.25,4.44-.6,1.84-.35,3.17-1.95,4-4.8.83-2.85,1.24-6.09,1.24-9.72Z" fill="#7b6a58"/>
</svg>